<svg width="10" height="15" viewBox="0 0 10 15" fill="none" xmlns="http://www.w3.org/2000/svg">
<path d="M8.5 3.05176e-05H1.5C0.672848 3.05176e-05 0 0.628133 0 1.40028V13.5358C0 14.3079 0.672848 14.936 1.5 14.936H8.5C9.32715 14.936 10 14.3079 10 13.5358V1.40028C10 0.628133 9.32715 3.05176e-05 8.5 3.05176e-05ZM1.5 0.933529H8.5C8.77588 0.933529 9 1.14275 9 1.40028V11.202H1V1.40028C1 1.14275 1.22412 0.933529 1.5 0.933529ZM8.5 14.0025H1.5C1.22412 14.0025 1 13.7933 1 13.5358V12.1355H9V13.5358C9 13.7933 8.77588 14.0025 8.5 14.0025Z" fill="#757575"/>
<path d="M2.35355 12.739C2.54882 12.9214 2.54882 13.217 2.35355 13.3993C2.15828 13.5817 1.84172 13.5817 1.64645 13.3993C1.45118 13.217 1.45118 12.9214 1.64645 12.739C1.84172 12.5567 2.15828 12.5567 2.35355 12.739Z" fill="#757575"/>
</svg>
